HIERARCHY
ROOT Hips
{
	OFFSET 0.00000 0.00000 0.00000
	CHANNELS 6 Xposition Yposition Zposition Zrotation Yrotation Xrotation 
	JOINT LHipJoint
	{
		OFFSET 0 0 0
		CHANNELS 3 Zrotation Yrotation Xrotation
		JOINT LeftHip
		{
			OFFSET 1.53794 -1.55850 0.93568
			CHANNELS 3 Zrotation Yrotation Xrotation
			JOINT LeftKnee
			{
				OFFSET 2.28545 -6.27922 0.00000
				CHANNELS 3 Zrotation Yrotation Xrotation
				JOINT LeftAnkle
				{
					OFFSET 2.37329 -6.52057 0.00000
					CHANNELS 3 Zrotation Yrotation Xrotation
					JOINT LeftToe
					{
						OFFSET 0.14846 -0.40788 2.09160
						CHANNELS 3 Zrotation Yrotation Xrotation
						End Site
						{
							OFFSET 0.00000 -0.00000 1.07536
						}
					}
				}
			}
		}
	}
	JOINT RHipJoint
	{
		OFFSET 0 0 0
		CHANNELS 3 Zrotation Yrotation Xrotation
		JOINT RightHip
		{
			OFFSET -1.78290 -1.55850 0.93568
			CHANNELS 3 Zrotation Yrotation Xrotation
			JOINT RightKnee
			{
				OFFSET -2.24144 -6.15831 0.00000
				CHANNELS 3 Zrotation Yrotation Xrotation
				JOINT RightAnkle
				{
					OFFSET -2.35091 -6.45907 0.00000
					CHANNELS 3 Zrotation Yrotation Xrotation
					JOINT RightToe
					{
						OFFSET -0.14428 -0.39641 2.07944
						CHANNELS 3 Zrotation Yrotation Xrotation
						End Site
						{
							OFFSET -0.00000 -0.00000 1.06864
						}
					}
				}
			}
		}
	}
	JOINT lowerback
	{
		OFFSET 0 0 0
		CHANNELS 3 Zrotation Yrotation Xrotation
		JOINT Chest
		{
			OFFSET -0.08841 2.11430 -0.15818
			CHANNELS 3 Zrotation Yrotation Xrotation
			JOINT Chest2
			{
				OFFSET -0.00033 2.12605 -0.08097
				CHANNELS 3 Zrotation Yrotation Xrotation
				JOINT lowerneck
				{
					OFFSET 0 0 0
					CHANNELS 3 Zrotation Yrotation Xrotation
					JOINT Neck
					{
						OFFSET 0.04431 1.59447 0.43193
						CHANNELS 3 Zrotation Yrotation Xrotation
						JOINT Head
						{
							OFFSET 0.00455 1.62017 -0.58852
							CHANNELS 3 Zrotation Yrotation Xrotation
							End Site
							{
								OFFSET -0.00920 1.72955 -0.25850
							}
						}
					}
				}
				JOINT LeftCollar
				{
					OFFSET 0 0 0
					CHANNELS 3 Zrotation Yrotation Xrotation
					JOINT LeftShoulder
					{
						OFFSET 2.86490 1.49927 -0.33774
CHANNELS 3 Zrotation Xrotation Yrotation
						JOINT LeftElbow
						{
OFFSET 0 -4.874080 0.000000
CHANNELS 3 Zrotation Xrotation Yrotation
							JOINT LeftWrist
							{
OFFSET 0 -2.767290 0.000000
CHANNELS 3 Zrotation Xrotation Yrotation
								JOINT lhand
								{
									OFFSET 0 0 0
CHANNELS 3 Zrotation Xrotation Yrotation
									JOINT LFingers
									{
OFFSET 0 -0.989220 0.000000
CHANNELS 3 Zrotation Xrotation Yrotation
										End Site
										{
OFFSET 0 -0.797530 0.000000
										}
									}
								}
								JOINT LThumb
								{
OFFSET 0 0.000000 0.000000
CHANNELS 3 Zrotation Xrotation Yrotation
									End Site
									{
OFFSET 0 -0.809720 0.809720
									}
								}
							}
						}
					}
				}
				JOINT RightCollar
				{
					OFFSET 0 0 0
					CHANNELS 3 Zrotation Yrotation Xrotation
					JOINT RightShoulder
					{
						OFFSET -2.94414 1.45463 -0.25291
CHANNELS 3 Zrotation Xrotation Yrotation
						JOINT RightElbow
						{
OFFSET 0 -4.714040 0.000000
CHANNELS 3 Zrotation Xrotation Yrotation
							JOINT RightWrist
							{
OFFSET 0 -2.834680 0.000000
CHANNELS 3 Zrotation Xrotation Yrotation
								JOINT rhand
								{
									OFFSET 0 0 0
CHANNELS 3 Zrotation Xrotation Yrotation
									JOINT RFingers
									{
OFFSET 0 -0.868200 0.000000
CHANNELS 3 Zrotation Xrotation Yrotation
										End Site
										{
OFFSET 0 -0.699960 0.000000
										}
									}
								}
								JOINT RThumb
								{
OFFSET 0 0.000000 0.000000
CHANNELS 3 Zrotation Xrotation Yrotation
									End Site
									{
OFFSET 0 -0.710650 0.710650
									}
								}
							}
						}
					}
				}
			}
		}
	}
}
MOTION
Frames: 12
Frame Time: 0.008333333333333333
1.282900 16.520200 33.369600 -179.225000 3.944700 -172.097000 0.000000 0.000000 0.000000 -11.540100 -18.906900 -32.607400 1.701500 8.214400 23.367200 0.873000 13.972000 18.076800 0.159300 -2.571700 -7.088600 0.000000 0.000000 0.000000 24.489900 -1.608100 6.617200 -1.234800 -7.046800 19.854000 0.160600 -18.089900 11.189500 -1.652400 8.101200 -23.021800 -3.828400 5.564200 -6.622300 -0.765500 7.772800 0.597200 2.073400 3.791200 3.912600 -2.242200 -1.242700 -31.237300 3.729400 -8.918600 45.716600 -0.875100 -4.276700 29.010100 -0.000000 0.000000 0.000000 28.840400 36.314000 -57.942000 89.998800 -60.000000 59.999000 12.321900 17.219700 -3.628500 0.000000 0.000000 0.000000 -7.125000 0.000000 0.000000 -11.648300 33.522300 -3.336800 -0.000000 0.000000 0.000000 -5.752800 0.486300 51.406000 -100.879800 -59.548000 -69.407900 -9.853700 7.819000 0.581200 0.000000 0.000000 0.000000 7.125000 0.000000 -0.000000 13.163700 30.418200 4.800500
1.272232 16.513622 33.200456 -179.108247 4.095768 -172.118928 0.000000 0.000000 0.000000 -11.454580 -18.820906 -32.600703 1.650058 8.094862 23.003073 0.861028 14.058350 18.010838 0.196104 -2.842780 -7.841982 0.000000 0.000000 0.000000 24.448473 -1.875683 7.027435 -1.248905 -7.085382 19.968560 0.103764 -18.299640 11.895292 -1.554731 7.866687 -22.311326 -3.649774 5.563430 -6.877201 -0.754121 7.768888 0.635604 2.020061 3.786281 4.117362 -2.284397 -1.163936 -31.552592 3.764841 -8.849437 45.827130 -0.844401 -4.257083 29.392658 0.000000 0.000000 0.000000 28.856639 36.543654 -57.715310 90.269287 -59.999526 60.233217 12.359889 17.275706 -3.556789 0.000000 0.000000 0.000000 -7.125000 0.000000 0.000000 -11.607170 33.451893 -3.344742 0.000000 0.000000 0.000000 -5.915069 0.278930 51.697942 -100.921345 -59.544503 -69.443696 -9.684379 7.808510 0.539299 0.000000 0.000000 0.000000 7.125000 0.000000 0.000000 13.289283 30.373336 4.863381
1.261472 16.503318 33.032684 -178.982970 4.234345 -172.178845 0.000000 0.000000 0.000000 -11.389407 -18.715362 -32.589262 1.617368 8.018963 22.771831 0.858452 14.185505 18.032119 0.224995 -3.052931 -8.426178 0.000000 0.000000 0.000000 24.416312 -2.121363 7.351039 -1.294643 -7.205981 20.328469 0.069685 -18.495649 12.373229 -1.449686 7.607713 -21.530249 -3.453970 5.591530 -7.063037 -0.768574 7.798740 0.603887 1.921748 3.803043 4.214701 -2.306210 -1.106928 -31.632746 3.812827 -8.854713 45.928598 -0.827581 -4.269043 29.623838 0.000000 0.000000 0.000000 29.063468 36.829474 -57.687548 90.545835 -59.998718 60.472697 12.406403 17.314144 -3.497845 0.000000 0.000000 0.000000 -7.125000 0.000000 0.000000 -11.561110 33.394568 -3.347402 0.000000 0.000000 0.000000 -5.987630 0.303067 51.902881 -101.072111 -59.531445 -69.573611 -9.546801 7.821406 0.496806 0.000000 0.000000 0.000000 7.125000 0.000000 0.000000 13.390110 30.328546 4.916811
1.250508 16.484828 32.867926 -178.838955 4.345468 -172.322267 0.000000 0.000000 0.000000 -11.368960 -18.566842 -32.567393 1.625903 8.038995 22.832697 0.876528 14.402357 18.245178 0.236492 -3.129146 -8.638466 0.000000 0.000000 0.000000 24.404519 -2.318895 7.484208 -1.409914 -7.506872 21.227704 0.085627 -18.661474 12.350293 -1.328429 7.294969 -20.593974 -3.220405 5.683095 -7.097055 -0.839811 7.902810 0.418031 1.724572 3.867465 4.075901 -2.283215 -1.097742 -31.196019 3.888390 -9.023620 46.010148 -0.841271 -4.350414 29.522257 0.000000 0.000000 0.000000 29.689251 37.238761 -58.097073 90.835702 -59.997177 60.723745 12.471654 17.313967 -3.466968 0.000000 0.000000 0.000000 -7.125000 0.000000 0.000000 -11.504216 33.366002 -3.338453 0.000000 0.000000 0.000000 -5.862994 0.836100 51.916571 -101.462967 -59.497367 -69.910417 -9.479001 7.885709 0.453009 0.000000 0.000000 0.000000 7.125000 0.000000 0.000000 13.436515 30.283919 4.949466
1.237876 16.453773 32.705429 -178.714953 4.503289 -172.507940 0.000000 0.000000 0.000000 -11.569291 -18.089771 -32.369629 1.637550 8.066254 22.915614 0.980847 14.484638 19.052041 0.230793 -3.090618 -8.531209 0.000000 0.000000 0.000000 24.348807 -2.528324 7.614598 -1.530077 -7.805242 22.126493 0.040714 -18.645437 12.743820 -1.255018 7.101305 -20.016160 -3.040913 5.720736 -7.175288 -0.825102 7.938983 0.397507 1.654036 3.888153 4.118185 -2.299394 -1.046490 -31.001972 3.950760 -9.024525 46.055488 -0.799999 -4.370189 29.495837 0.000000 0.000000 0.000000 29.849725 37.493909 -58.117967 91.053262 -59.995711 60.912122 12.544614 17.316124 -3.422674 0.000000 0.000000 0.000000 -7.125000 0.000000 0.000000 -11.439315 33.324242 -3.330727 0.000000 0.000000 0.000000 -5.891758 1.051032 51.965062 -101.520155 -59.492531 -69.959734 -9.371175 7.913247 0.424777 0.000000 0.000000 0.000000 7.125000 0.000000 0.000000 13.516053 30.253932 4.990275
1.224245 16.415191 32.544286 -178.602942 4.689086 -172.718925 0.000000 0.000000 0.000000 -11.901888 -17.415863 -32.066486 1.651063 8.097842 23.011743 1.136833 14.486297 20.214651 0.214792 -2.983348 -8.232511 0.000000 0.000000 0.000000 24.266783 -2.744880 7.743323 -1.653172 -8.102103 23.025017 -0.040657 -18.520446 13.386850 -1.210273 6.978981 -19.653099 -2.893816 5.726069 -7.280010 -0.758903 7.934479 0.476034 1.659369 3.882642 4.268956 -2.339043 -0.970038 -30.953315 4.005225 -8.924781 46.079135 -0.725798 -4.353061 29.514447 0.000000 0.000000 0.000000 29.731431 37.656711 -57.906034 91.227502 -59.994288 61.062953 12.622192 17.319680 -3.370343 0.000000 0.000000 0.000000 -7.125000 0.000000 0.000000 -11.369619 33.274578 -3.323733 0.000000 0.000000 0.000000 -6.012422 1.075390 52.034403 -101.377444 -59.505214 -69.836817 -9.239368 7.918758 0.405872 0.000000 0.000000 0.000000 7.125000 0.000000 0.000000 13.615441 30.232715 5.035968
1.211225 16.378666 32.382921 -178.502048 4.832077 -172.920459 0.000000 0.000000 0.000000 -12.181061 -16.826290 -31.942130 1.694373 8.197532 23.316010 1.194421 14.271701 20.571279 0.197122 -2.856842 -7.880666 0.000000 0.000000 0.000000 24.185205 -2.912403 7.757026 -1.823297 -8.480351 24.187494 -0.075109 -18.515591 13.684817 -1.152519 6.814684 -19.168069 -2.804313 5.737519 -7.365108 -0.677471 7.940093 0.491852 1.705508 3.884135 4.333170 -2.415049 -0.928664 -30.837892 4.021831 -8.870012 46.134692 -0.686566 -4.368011 29.542618 0.000000 0.000000 0.000000 29.705921 37.891394 -57.855931 91.420422 -59.992254 61.230072 12.704441 17.342582 -3.344974 0.000000 0.000000 0.000000 -7.125000 0.000000 0.000000 -11.299979 33.252043 -3.308902 0.000000 0.000000 0.000000 -6.159048 1.246346 52.075614 -101.357815 -59.506945 -69.819860 -9.141640 7.915486 0.384909 0.000000 0.000000 0.000000 7.125000 0.000000 0.000000 13.688033 30.210052 5.071933
1.198112 16.340316 32.222240 -178.408427 4.968436 -173.132364 0.000000 0.000000 0.000000 -12.482499 -16.210804 -31.823374 1.747794 8.318896 23.687384 1.233012 13.981291 20.771915 0.178243 -2.717283 -7.492772 0.000000 0.000000 0.000000 24.096345 -3.071516 7.739580 -2.009472 -8.880588 25.426144 -0.104707 -18.515404 13.941607 -1.098110 6.658343 -18.707134 -2.725168 5.745196 -7.434972 -0.593190 7.940848 0.506157 1.757805 3.883312 4.385677 -2.493695 -0.889519 -30.715486 4.032742 -8.814098 46.190351 -0.649970 -4.384143 29.564943 0.000000 0.000000 0.000000 29.669380 38.125508 -57.808125 91.605244 -59.990195 61.390170 12.789702 17.367312 -3.324893 0.000000 0.000000 0.000000 -7.125000 0.000000 0.000000 -11.228678 33.234910 -3.292051 0.000000 0.000000 0.000000 -6.306201 1.438072 52.102946 -101.328622 -59.509483 -69.794674 -9.050487 7.911902 0.370199 0.000000 0.000000 0.000000 7.125000 0.000000 0.000000 13.756419 30.193683 5.104165
1.184600 16.296104 32.063645 -178.334346 5.093427 -173.377130 0.000000 0.000000 0.000000 -12.861027 -15.501219 -31.686056 1.825550 8.491596 24.218225 1.234257 13.506989 20.665474 0.156078 -2.542510 -7.007625 0.000000 0.000000 0.000000 23.985637 -3.215175 7.651749 -2.234325 -9.330472 26.840336 -0.129065 -18.505447 14.143465 -1.056269 6.534063 -18.342295 -2.665606 5.740396 -7.463183 -0.503403 7.925083 0.528322 1.820449 3.874185 4.420288 -2.573051 -0.850108 -30.585399 4.034105 -8.745884 46.240016 -0.614352 -4.397478 29.567906 0.000000 0.000000 0.000000 29.581549 38.343723 -57.735228 91.762179 -59.988180 61.526065 12.883045 17.393685 -3.315292 0.000000 0.000000 0.000000 -7.125000 0.000000 0.000000 -11.152403 33.228569 -3.270716 0.000000 0.000000 0.000000 -6.449801 1.662925 52.094352 -101.246539 -59.516595 -69.723971 -8.972257 7.909116 0.374585 0.000000 0.000000 0.000000 7.125000 0.000000 0.000000 13.817521 30.196410 5.127160
1.170887 16.248152 31.906687 -178.280965 5.205229 -173.641262 0.000000 0.000000 0.000000 -13.281993 -14.762585 -31.519088 1.918532 8.691975 24.837913 1.193131 12.984908 20.237831 0.135482 -2.368604 -6.525550 0.000000 0.000000 0.000000 23.853828 -3.355429 7.543784 -2.478744 -9.789705 28.306448 -0.152288 -18.513153 14.345557 -1.019536 6.423139 -18.017357 -2.623173 5.724844 -7.456101 -0.417222 7.895662 0.553326 1.883393 3.858447 4.437036 -2.656748 -0.810463 -30.458650 4.040543 -8.677803 46.288311 -0.574793 -4.411380 29.572305 0.000000 0.000000 0.000000 29.463868 38.549017 -57.642398 91.901117 -59.986265 61.646335 12.984067 17.424699 -3.313103 0.000000 0.000000 0.000000 -7.125000 0.000000 0.000000 -11.071020 33.229974 -3.245707 0.000000 0.000000 0.000000 -6.581715 1.911951 52.059181 -101.120583 -59.527413 -69.615404 -8.911522 7.906564 0.390824 0.000000 0.000000 0.000000 7.125000 0.000000 0.000000 13.866771 30.211123 5.141374
1.157019 16.197303 31.750997 -178.243628 5.306810 -173.920402 0.000000 0.000000 0.000000 -13.735848 -14.001439 -31.329143 2.023313 8.913806 25.526459 1.119167 12.425798 19.561257 0.116102 -2.195371 -6.045855 0.000000 0.000000 0.000000 23.705664 -3.493044 7.420216 -2.738326 -10.256183 29.812797 -0.174631 -18.534548 14.547830 -0.986762 6.322565 -17.723341 -2.594014 5.700960 -7.421668 -0.333835 7.855658 0.580528 1.946570 3.837586 4.439940 -2.743809 -0.770636 -30.334489 4.050915 -8.609825 46.335546 -0.532181 -4.425722 29.577817 0.000000 0.000000 0.000000 29.323053 38.744296 -57.534120 92.026108 -59.984428 61.754494 13.091041 17.459310 -3.316659 0.000000 0.000000 0.000000 -7.125000 0.000000 0.000000 -10.985678 33.237382 -3.217852 0.000000 0.000000 0.000000 -6.704573 2.179713 52.003412 -100.960626 -59.541103 -69.477493 -8.864347 7.904194 0.416249 0.000000 0.000000 0.000000 7.125000 0.000000 0.000000 13.906834 30.235125 5.148782
1.143047 16.142559 31.597903 -178.235885 5.381652 -174.228618 0.000000 0.000000 0.000000 -14.205797 -13.296782 -31.103216 2.157585 9.183143 26.372634 0.985444 11.987090 18.391652 0.100097 -2.036053 -5.605464 0.000000 0.000000 0.000000 23.533669 -3.611188 7.245610 -3.038355 -10.745402 31.438044 -0.187317 -18.606046 14.698754 -0.955131 6.222823 -17.432493 -2.560027 5.658229 -7.317298 -0.279057 7.789590 0.610587 1.967847 3.805198 4.412523 -2.805741 -0.722035 -30.229071 4.069593 -8.548390 46.379561 -0.491906 -4.435548 29.589611 0.000000 0.000000 0.000000 29.155292 38.903180 -57.375792 92.104423 -59.983214 61.822364 13.216032 17.497088 -3.330236 0.000000 0.000000 0.000000 -7.125000 0.000000 0.000000 -10.887148 33.255589 -3.183248 0.000000 0.000000 0.000000 -6.768345 2.474109 51.915142 -100.730109 -59.560245 -69.278784 -8.839030 7.916465 0.468620 0.000000 0.000000 0.000000 7.125000 0.000000 0.000000 13.933918 30.286022 5.141860
